<?xml version="1.0" encoding="UTF-8"?>
<svg width="41px" height="42px" viewBox="0 0 41 42" version="1.1" xmlns="http://www.w3.org/2000/svg" xmlns:xlink="http://www.w3.org/1999/xlink">
    <!-- Generator: Sketch 59 (86127) - https://sketch.com -->
    <title>american-football copy</title>
    <desc>Created with Sketch.</desc>
    <g id="Page-1" stroke="none" stroke-width="1" fill="none" fill-rule="evenodd">
        <g id="About-Us-Mobile" transform="translate(-140.000000, -3758.000000)">
            <g id="Our-Values" transform="translate(28.000000, 2303.000000)">
                <g id="american-football-copy" transform="translate(112.000000, 1455.000000)">
                    <path d="M28.657878,7.21754917 C27.5067383,6.2576284 26.2587329,5.52387014 24.9477927,5.03731839 C24.5527072,4.890857 24.1412605,5.18849654 24.0286844,5.70250224 C23.9161083,6.21602417 24.144886,6.75167858 24.5399715,6.89813997 C25.7110979,7.33280739 26.8262616,7.98855772 27.8546924,8.84652394 C27.9791676,8.95041357 28.1179588,9 28.2555415,9 C28.5003086,9 28.7403347,8.84277473 28.8822866,8.55456871 C29.1038133,8.10478348 29.0036011,7.50623896 28.657878,7.21754917 Z" id="Fill-1" fill="#ED503E"></path>
                    <g id="Group-5">
                        <path d="M20.7413585,4.07974627 C20.7106361,4.07974627 20.6804663,4.07932836 20.6497439,4.07932836 C15.8657844,4.07932836 11.3098113,6.04486567 8.13778167,9.47998507 C7.81652291,9.82768657 7.85453908,10.3558209 8.22232345,10.6594328 C8.39030189,10.7973433 8.59707008,10.8654627 8.80339623,10.8654627 C9.04994879,10.8654627 9.29506469,10.768403 9.46989488,10.579403 C12.3057466,7.50797015 16.3765714,5.75097015 20.650186,5.75097015 C20.6770404,5.75097015 20.7046685,5.75097015 20.7314124,5.75138806 L20.7366065,5.75138806 C21.2226388,5.75138806 21.6176092,5.38038806 21.6207157,4.9200597 C21.6232453,4.45847761 21.2296011,4.08225373 20.7413585,4.07974627 Z" id="Fill-2" fill="#ED503E"></path>
                        <path d="M39.9544447,26.4233284 L28.4806334,25.6442388 C28.0333908,22.2601045 27.8904987,19.0245373 27.8701644,18.5087313 C29.6953827,17.2390149 31.8883854,16.541209 34.198752,16.5166567 L40.0217466,16.4554328 C40.2873073,16.4530299 40.5376173,16.3374776 40.7029434,16.1412687 C40.8687116,15.9449552 40.9322561,15.6889851 40.8761159,15.4433582 C39.8991887,11.1638507 37.3785175,7.26798507 33.7795795,4.47362687 C30.1301375,1.64050746 25.515814,0.066761194 20.7871105,0.0418955224 C20.7482102,0.0418955224 20.7101941,0.0418955224 20.6714043,0.0418955224 C15.169558,0.0418955224 9.99615364,2.0841194 6.09374933,5.79955224 C4.15238275,7.64797015 2.63549326,9.80522388 1.58474394,12.2114478 C0.498188679,14.700209 -0.0344797844,17.3361791 0.00176819407,20.0464328 C0.0250862534,21.7940299 0.180466307,23.5358806 0.463156334,25.2242388 C0.768390836,27.0423582 2.40883288,28.361806 4.36390296,28.361806 C5.56793261,28.361806 6.54740162,29.2878955 6.54740162,30.4256567 L6.54740162,33.2816567 C6.54740162,35.3393433 7.32187062,37.3363284 8.72824798,38.9043284 C10.140372,40.4783881 12.1006361,41.5195075 14.2470027,41.8353433 C14.9886496,41.9447313 15.7609084,41.999791 16.5423396,41.999791 L16.6062156,41.999791 C18.4550836,41.9928955 20.1913396,41.2998955 21.4950512,40.0490896 C22.8116927,38.7847015 23.5257116,37.1113881 23.5049353,35.3369403 L23.4466954,30.3897164 L27.6384205,30.6840299 C27.9759245,31.9602239 28.3843774,33.0797015 28.8794717,33.8725821 C31.3677628,37.8595522 38.1599488,38.0460448 38.4478329,38.0521045 C38.4543531,38.0521045 38.4612049,38.0521045 38.4677251,38.0521045 C38.9464636,38.0521045 39.3397763,37.6905075 39.350938,37.2355075 C39.3617682,36.7743433 38.9754178,36.3919552 38.4876173,36.3804627 C38.4711509,36.3804627 38.0286604,36.3678209 37.3513315,36.2886269 L38.2721186,31.4308358 L39.2560081,31.499791 C39.278442,31.5014627 39.300434,31.5022985 39.3224259,31.5022985 C39.7809407,31.5022985 40.1686173,31.1676567 40.203097,30.7281194 C40.239345,30.267791 39.8737709,29.8670149 39.3867439,29.8326418 L38.585973,29.7763284 L38.9170674,28.0288358 L39.8275768,28.0904776 C39.8491267,28.0920448 39.8702345,28.0924627 39.8918949,28.0924627 C40.3511833,28.0924627 40.7393019,27.7565672 40.7724555,27.3166119 C40.8079299,26.8562836 40.4413612,26.4563433 39.9544447,26.4233284 Z M23.4272453,28.7120149 L23.4065795,26.9754925 L26.9282695,27.2146418 C27.0227574,27.8100597 27.1285175,28.4026567 27.2451078,28.9801045 L23.4272453,28.7120149 Z M23.5243854,25.3075075 C23.8330458,23.3260896 24.7434447,21.4814328 26.1728086,19.9689104 C26.2513827,21.2924328 26.4046631,23.3477164 26.6852534,25.522209 L23.5243854,25.3075075 Z M25.2533477,18.4511642 C22.8846307,20.7406866 21.6008113,23.765209 21.6383854,26.9677612 L21.7367412,35.3557463 C21.7523235,36.6812537 21.2192129,37.9317463 20.2353235,38.8761194 C19.2649164,39.8074328 17.9733612,40.3229254 16.6026792,40.3281493 L16.5423396,40.3285672 C15.8516388,40.3285672 15.1707736,40.2796716 14.5194151,40.1837612 C10.9246765,39.654791 8.31559569,36.7518806 8.31559569,33.2816567 L8.31559569,30.4256567 C8.31559569,28.3658806 6.54309164,26.6901642 4.36390296,26.6901642 C3.28386792,26.6901642 2.37777898,25.9637313 2.20980054,24.962209 C1.94004043,23.3538806 1.79195418,21.692791 1.76996226,20.0252239 C1.70431806,15.0988955 3.68535849,10.4651045 7.34861456,6.97743284 C10.9164987,3.58065672 15.6439865,1.71353731 20.6714043,1.71353731 C20.7067682,1.71353731 20.7421321,1.71353731 20.7776065,1.71395522 C29.2041563,1.75762687 36.6511267,7.19986567 38.8868976,14.7957015 L34.1793019,14.8454328 C30.7918841,14.8809552 27.6219542,16.1616418 25.2533477,18.4511642 Z M35.6099919,35.9989104 C33.7494097,35.5908209 31.4799326,34.7496716 30.4024394,33.0229701 C30.0545472,32.4654776 29.7528491,31.7010149 29.4907143,30.814209 L36.4996146,31.306403 L35.6099919,35.9989104 Z M36.813469,29.6523134 L29.0633639,29.1078806 C28.941248,28.5364925 28.8307358,27.9414925 28.7309434,27.3370896 L37.1441213,27.9083731 L36.813469,29.6523134 Z" id="Fill-4" fill="#000000"></path>
                    </g>
                    <path d="M14.99987,31 C13.3457912,31 12,32.3458017 12,34 C12,35.6541983 13.3457912,37 14.99987,37 C16.6542088,37 18,35.6541983 18,34 C18,32.3458017 16.6542088,31 14.99987,31 Z M14.99987,35.6135582 C14.1103586,35.6135582 13.3863416,34.8898356 13.3863416,34 C13.3863416,33.1100777 14.1103586,32.3864418 14.99987,32.3864418 C15.8896414,32.3864418 16.6136584,33.1100777 16.6136584,34 C16.6136584,34.8898356 15.8896414,35.6135582 14.99987,35.6135582 Z" id="Fill-6" fill="#ED503E"></path>
                </g>
            </g>
        </g>
    </g>
</svg>