<?xml version="1.0" encoding="UTF-8"?>
<svg width="36px" height="49px" viewBox="0 0 36 49" version="1.1" xmlns="http://www.w3.org/2000/svg" xmlns:xlink="http://www.w3.org/1999/xlink">
    <!-- Generator: Sketch 59 (86127) - https://sketch.com -->
    <title>antenna</title>
    <desc>Created with Sketch.</desc>
    <g id="Page-1" stroke="none" stroke-width="1" fill="none" fill-rule="evenodd">
        <g id="About-Us-Mobile" transform="translate(-144.000000, -3572.000000)">
            <g id="Our-Values" transform="translate(28.000000, 2303.000000)">
                <g id="antenna" transform="translate(116.000000, 1269.000000)">
                    <path d="M23.6350757,43.5481646 L21.0780745,43.5481646 C20.7980723,42.4223605 19.8973105,41.5351982 18.7544084,41.259261 L18.7544084,21.1546266 C20.1390734,20.820206 21.1700249,19.5879673 21.1700249,18.1224148 C21.1700249,16.40075 19.7480012,15 17.9996855,15 C16.2519988,15 14.8299751,16.40075 14.8299751,18.1224148 C14.8299751,19.5879673 15.8609266,20.820206 17.2449626,21.1546266 L17.2449626,41.259261 C16.1025637,41.5351982 15.2019277,42.4228562 14.9214223,43.5481646 L12.3649243,43.5481646 C11.0607631,43.5481646 10,44.5930584 10,45.8777091 L10,48.2565679 C10,48.6669424 10.3379901,49 10.7547229,49 L25.2452771,49 C25.6618841,49 26,48.6669424 26,48.2565679 L26,45.8777091 C26,44.5930584 24.9391112,43.5481646 23.6350757,43.5481646 Z M16.3394209,18.1224148 C16.3394209,17.2206317 17.0843324,16.4868642 17.9996855,16.4868642 C18.9156676,16.4868642 19.6605791,17.2206317 19.6605791,18.1224148 C19.6605791,19.0245697 18.9156676,19.7583372 17.9996855,19.7583372 C17.0843324,19.7583372 16.3394209,19.0245697 16.3394209,18.1224148 Z M17.9996855,42.6556743 C18.6434642,42.6556743 19.2015818,43.0190887 19.4773072,43.5481646 L16.5226928,43.5481646 C16.7984182,43.0190887 17.3560327,42.6556743 17.9996855,42.6556743 Z M24.4905542,47.5131358 L11.5094458,47.5131358 L11.5094458,45.8772134 C11.5094458,45.413064 11.8932224,45.0350288 12.3649243,45.0350288 L23.6350757,45.0350288 C24.1067776,45.0350288 24.4905542,45.413064 24.4905542,45.8772134 L24.4905542,47.5131358 Z" id="Fill-1" fill="#000000"></path>
                    <path d="M17.9996795,0 C8.07484304,0 0,7.78259511 0,17.3480761 C0,21.1596139 1.25948269,24.7757992 3.6417819,27.8054324 C5.94497883,30.735227 9.2181723,32.9241398 12.8575183,33.9686151 C13.2641835,34.0855054 13.6929,33.8619805 13.8140534,33.4700397 C13.9352068,33.0776046 13.7039256,32.6645346 13.2962347,32.5476443 C9.96842604,31.5925048 6.97510337,29.5904188 4.86780318,26.9100973 C2.68973401,24.1400692 1.53845606,20.8339027 1.53845606,17.3480761 C1.53845606,8.60020933 8.92330156,1.4827521 17.9996795,1.4827521 C27.0766984,1.4827521 34.4615439,8.60020933 34.4615439,17.3480761 C34.4615439,20.8339027 33.3101378,24.1400692 31.1321968,26.9100973 C29.0248966,29.5904188 26.031574,31.5925048 22.7032525,32.5476443 C22.2960744,32.6645346 22.064665,33.0776046 22.1859466,33.4700397 C22.2850488,33.7915498 22.5910734,34 22.9226107,34 C22.9951745,34 23.0692768,33.9898679 23.1424817,33.9686151 C26.7816995,32.9241398 30.0545084,30.735227 32.3582181,27.8054324 C34.7405173,24.7757992 36,21.1596139 36,17.3480761 C36,7.78259511 27.9250288,0 17.9996795,0 Z" id="Fill-2" fill="#ED503E"></path>
                    <path d="M17.9996855,11.4940513 C21.5788332,11.4940513 24.4905542,14.3760762 24.4905542,17.9182228 C24.4905542,19.7342421 23.7018687,21.4758079 22.3261346,22.6969458 C22.0160693,22.9722248 21.9900314,23.4444695 22.2681468,23.7518706 C22.4175819,23.9162162 22.6233697,24 22.8302895,24 C23.0100394,24 23.189915,23.9371329 23.3339413,23.809267 C25.0280427,22.3050064 26,20.1578057 26,17.9182228 C26,13.5522314 22.4111668,10 17.9996855,10 C13.5888332,10 10,13.5522314 10,17.9182228 C10,20.1578057 10.9713284,22.3050064 12.6660587,23.809267 C12.976124,24.084546 13.4532347,24.0587736 13.7318532,23.7518706 C14.0099686,23.4444695 13.9839307,22.9722248 13.6738654,22.6969458 C12.2980055,21.4758079 11.5094458,19.7342421 11.5094458,17.9182228 C11.5094458,14.3760762 14.4211668,11.4940513 17.9996855,11.4940513 Z" id="Fill-3" fill="#000000"></path>
                    <path d="M22.8950098,29 C22.9969706,29 23.101098,28.9802818 23.2006373,28.9382734 C27.9387549,26.9475916 31,22.4547793 31,17.4922816 C31,10.604013 25.1687353,5 18,5 C10.831902,5 5,10.604013 5,17.4922816 C5,22.4547793 8.06188235,26.9475916 12.8,28.9382734 C13.1868137,29.1004281 13.6373529,28.9310475 13.8066078,28.5593409 C13.9758627,28.1876343 13.799598,27.7542011 13.4122745,27.5915565 C9.23137255,25.8347988 6.52941176,21.8707039 6.52941176,17.4922816 C6.52941176,11.4145417 11.6752451,6.46968019 18,6.46968019 C24.3252647,6.46968019 29.4705882,11.4145417 29.4705882,17.4922816 C29.4705882,21.8707039 26.7692647,25.8347988 22.5878529,27.5919239 C22.2009118,27.7542011 22.0247745,28.1876343 22.1935196,28.5593409 C22.3194412,28.8353958 22.6002157,29 22.8950098,29 Z" id="Fill-4" fill="#000000"></path>
                </g>
            </g>
        </g>
    </g>
</svg>