<svg id="Logo" xmlns="http://www.w3.org/2000/svg" viewBox="0 0 188 34">
  <defs>
    <style>
      .cls-1 {
        fill: #fff;
      }

      .cls-2 {
        fill: #FF3B30;
      }
    </style>
  </defs>
  <title>baller-logo-tight</title>
  <path class="cls-1" d="M5.17,5a1.09,1.09,0,0,1,.33-.58.88.88,0,0,1,.61-.22h11a6.4,6.4,0,0,1,2.76.58,5.56,5.56,0,0,1,2,1.6A5.86,5.86,0,0,1,23,8.77a6.87,6.87,0,0,1,0,2.93,8.67,8.67,0,0,1-2.52,4.43,6.56,6.56,0,0,1,1.39,2.74,7.4,7.4,0,0,1,0,3.35,9.24,9.24,0,0,1-1.25,3,11,11,0,0,1-2.16,2.49,10.43,10.43,0,0,1-2.77,1.69,7.9,7.9,0,0,1-3,.63H.64a.69.69,0,0,1-.52-.18A.59.59,0,0,1,0,29.27ZM15.06,22a2.89,2.89,0,0,0,0-1,2.38,2.38,0,0,0-.36-.93,2.17,2.17,0,0,0-.7-.67,1.92,1.92,0,0,0-1-.26H8.94l-1.23,5.8h4.07a2.68,2.68,0,0,0,1.11-.24,3.68,3.68,0,0,0,1-.65,4.19,4.19,0,0,0,.76-.93A3.59,3.59,0,0,0,15.06,22Zm1.23-10.1a2.39,2.39,0,0,0,0-1,1.88,1.88,0,0,0-.37-.8,1.91,1.91,0,0,0-.72-.55,2.45,2.45,0,0,0-1-.2H11l-1.06,5h3.15a3.42,3.42,0,0,0,1.12-.18,3.19,3.19,0,0,0,1-.52,3.28,3.28,0,0,0,.72-.8A3.08,3.08,0,0,0,16.29,11.86Z" transform="translate(0)"/>
  <path class="cls-1" d="M35.44,4.89a1.55,1.55,0,0,1,.45-.44,1.09,1.09,0,0,1,.63-.23H41a.72.72,0,0,1,.49.16.63.63,0,0,1,.23.34L46,29.24a1,1,0,0,1,0,.26q-.1.52-.87.52h-5a1,1,0,0,1-.59-.15.73.73,0,0,1-.24-.5q-.14-.89-.29-1.76t-.29-1.76H29.53l-1.05,1.76-1.05,1.76a1.57,1.57,0,0,1-.43.48,1,1,0,0,1-.58.16H21.29a.86.86,0,0,1-.46-.11.3.3,0,0,1-.13-.36.73.73,0,0,1,.1-.23ZM37,12.33q-.52.89-1.07,1.91l-1.11,2.07-1.11,2.06q-.55,1-1.07,1.9H38Z" transform="translate(0)"/>
  <path class="cls-1" d="M53.15,5a1,1,0,0,1,.32-.54.89.89,0,0,1,.62-.23h5.14a.72.72,0,0,1,.51.21.54.54,0,0,1,.13.56l-4,18.91h9.56a.62.62,0,0,1,.5.21.61.61,0,0,1,.1.57l-1,4.57a1.17,1.17,0,0,1-.31.55.81.81,0,0,1-.61.25H48.59q-.77,0-.61-.76Z" transform="translate(0)"/>
  <path class="cls-1" d="M72.81,5a1,1,0,0,1,.32-.54.89.89,0,0,1,.62-.23h5.14a.72.72,0,0,1,.51.21.54.54,0,0,1,.13.56l-4,18.91h9.56a.62.62,0,0,1,.5.21.61.61,0,0,1,.1.57l-1,4.57a1.17,1.17,0,0,1-.31.55.81.81,0,0,1-.61.25H68.26q-.77,0-.61-.76Z" transform="translate(0)"/>
  <path class="cls-1" d="M92.46,5a1.09,1.09,0,0,1,.33-.58.88.88,0,0,1,.61-.22h17.26a.63.63,0,0,1,.55.23.72.72,0,0,1,.08.61l-.92,4.31a1.07,1.07,0,0,1-.32.56.91.91,0,0,1-.67.27H98.1l-.9,4.29h8.69a.76.76,0,0,1,.51.16.49.49,0,0,1,.1.52l-.8,3.75a.93.93,0,0,1-.29.47.83.83,0,0,1-.6.23H96.11L95.17,24h11.68q.76,0,.61.8l-.94,4.38a1,1,0,0,1-.36.57,1,1,0,0,1-.65.23H87.92a.69.69,0,0,1-.52-.18.59.59,0,0,1-.09-.56Z" transform="translate(0)"/>
  <path class="cls-1" d="M114.76,5a1.12,1.12,0,0,1,.32-.58.87.87,0,0,1,.62-.22h11.23a7.48,7.48,0,0,1,3.21.67,6.33,6.33,0,0,1,3.61,4.5,7.72,7.72,0,0,1,0,3.28,8.62,8.62,0,0,1-.8,2.25,11.5,11.5,0,0,1-1.32,2,11.28,11.28,0,0,1-1.72,1.69,12,12,0,0,1-2,1.29l2.69,8.41q.07.24.19.57a1,1,0,0,1,.07.57.72.72,0,0,1-.8.57h-6a.76.76,0,0,1-.5-.17.58.58,0,0,1-.21-.47l-2.52-7.94H118l-1.67,7.84a.88.88,0,0,1-1,.75h-5.16a.69.69,0,0,1-.52-.18.59.59,0,0,1-.09-.56Zm12,7.72a3,3,0,0,0,0-1,2.67,2.67,0,0,0-.33-1,2.27,2.27,0,0,0-.68-.73,2.34,2.34,0,0,0-1-.38l-.9-.06-.93,0h-2.4l-1.36,6.38h3.2l.56,0,.56-.05a3.21,3.21,0,0,0,1.16-.36,4,4,0,0,0,1-.71,4.2,4.2,0,0,0,1.12-2Z" transform="translate(0)"/>
  <path class="cls-2" d="M188,.36,178.23,0,167.09.55l-12-.19-6.8.19-4-.19c-.11.41-.23.76-.3,1.16,0,.23-.06.51-.1.79s-1.52,7.32-1.61,7.68c-.16.6-2.6,10.21-2.77,10.84s-.88,6.1-1,6.7c-.31,1.2-.69,2.13-.9,3.33-.17,1-.65,2.05-.71,3,2.32-.12,3.37-.22,5.65-.16,1.12,0,5.29.3,5.76.31s2.46-.27,3-.28,3.58,0,3.58,0,2.95,0,3.41.06c1,.18,3.34-.29,4.34-.25,1.27,0,12.29.34,12.88.39s2.54-.08,2.54-.08l2-.16s.63.25.74-.62c.21-1.58.86-2.88,1.06-4.46.09-.73.42-3.08.42-3.08s1.12-4.48,1.28-5.19c0-.13,1.91-7.43,1.94-7.55s.29-3.28.3-3.33c0-.33.9-4,1-4.3S188.07.6,188,.36ZM159.93,12.92l-.51,2.42A1.2,1.2,0,0,1,159,16a1,1,0,0,1-.71.28h-2.19l-2.24,10.48a.93.93,0,0,1-1,.79h-3.68q-.82,0-.65-.79l2.24-10.48h-2.19q-.93,0-.71-.95l.51-2.42a1,1,0,0,1,1.1-.9h2.19l.84-3.94a1.12,1.12,0,0,1,.33-.55,1.31,1.31,0,0,1,.68-.32l4-.61a.52.52,0,0,1,.46.21.67.67,0,0,1,.07.55L157,12h2.19a.78.78,0,0,1,.6.23A.73.73,0,0,1,159.93,12.92Zm19,0,0,.12,0,.13-8.18,13.2-.24.4a3.16,3.16,0,0,1-.3.4,1.44,1.44,0,0,1-.37.3.89.89,0,0,1-.45.12h-3.73a.86.86,0,0,1-.43-.09.58.58,0,0,1-.22-.24q-.08-.2-.15-.43a2.77,2.77,0,0,1-.1-.46q-.59-3.28-1.24-6.55t-1.24-6.56a.31.31,0,0,1,0-.14,1,1,0,0,1,0-.25.7.7,0,0,1,.79-.54h4.44a.76.76,0,0,1,.55.19.79.79,0,0,1,.23.51q.06.93.16,2t.19,2.2q.09,1.09.17,2t.11,1.56l4-7.89a1.52,1.52,0,0,1,.47-.51,1.15,1.15,0,0,1,.62-.16h4.36a.73.73,0,0,1,.56.16A.49.49,0,0,1,179,12.91Z" transform="translate(0)"/>
</svg>
