<?xml version="1.0" encoding="UTF-8"?>
<svg width="45px" height="46px" viewBox="0 0 45 46" version="1.1" xmlns="http://www.w3.org/2000/svg" xmlns:xlink="http://www.w3.org/1999/xlink">
    <!-- Generator: Sketch 59 (86127) - https://sketch.com -->
    <title>business-partnership</title>
    <desc>Created with Sketch.</desc>
    <defs>
        <polygon id="path-1" points="0.06 0.683543478 44.332 0.683543478 44.332 45.9792826 0.06 45.9792826"></polygon>
    </defs>
    <g id="Page-1" stroke="none" stroke-width="1" fill="none" fill-rule="evenodd">
        <g id="About-Us-Mobile" transform="translate(-140.000000, -3120.000000)">
            <g id="Our-Values" transform="translate(28.000000, 2303.000000)">
                <g id="business-partnership" transform="translate(112.000000, 817.000000)">
                    <g id="Group-3">
                        <mask id="mask-2" fill="white">
                            <use xlink:href="#path-1"></use>
                        </mask>
                        <g id="Clip-2"></g>
                        <path d="M34.965,24.9651739 C34.965,24.749587 34.883,24.538087 34.73,24.3868696 L34.496,24.1477826 L34.73,23.9076739 C34.883,23.7564565 34.965,23.5490435 34.965,23.3293696 L34.965,20.4000435 L44.332,10.8283913 L43.199,9.67586957 L38.164,14.8203261 L30.496,6.98154348 L35.531,1.84117391 L34.398,0.683543478 L25.035,10.2541739 L22.164,10.2541739 C21.953,10.2541739 21.75,10.3379565 21.602,10.4932609 L21.367,10.7333696 L17.93,7.22063043 C17.781,7.06941304 17.578,6.98154348 17.367,6.98154348 L16.098,6.98154348 L9.93,0.683543478 L8.801,1.84117391 L10.633,3.713 L2.965,11.5476957 L1.133,9.67586957 L0,10.8283913 L6.164,17.1304783 L6.164,21.6966304 C6.164,21.9122174 6.25,22.1196304 6.398,22.2759565 L8.566,24.487 L8.566,27.0811957 L0,35.8293261 L1.133,36.9869565 L5.367,32.660913 L13.035,40.4956087 L8.801,44.8216522 L9.93,45.9792826 L18.496,37.2260435 L21.367,37.2260435 C21.578,37.2260435 21.781,37.1381739 21.93,36.9869565 L22.496,36.4086522 L25.035,36.4086522 L34.398,45.9792826 L35.531,44.8216522 L30.496,39.6771957 L38.164,31.8425 L43.199,36.9869565 L44.332,35.8293261 L34.965,26.2627826 L34.965,24.9651739 Z M29.367,8.13917391 L37.035,15.9738696 L34.164,18.9072826 L26.496,11.0685 L29.367,8.13917391 Z M25.035,11.886913 L33.367,20.4000435 L33.367,22.9942391 L22.496,11.886913 L25.035,11.886913 Z M33.367,25.3043913 L33.367,26.2627826 L25.035,34.775913 L22.496,34.775913 L18.164,30.3497391 L18.164,29.3913478 L19.199,30.4498696 L20.332,29.2922391 L11.227,19.9923696 C11.059,19.8166304 10.965,19.5898043 10.965,19.3425435 C10.965,18.8388261 11.367,18.428087 11.863,18.428087 C12.102,18.428087 12.328,18.5241304 12.496,18.6957826 L18.398,24.726087 L19.531,23.5684565 L13.629,17.5381522 C13.461,17.3665 13.367,17.1345652 13.367,16.8913913 C13.367,16.3846087 13.77,15.9738696 14.262,15.9738696 C14.504,15.9738696 14.727,16.0688913 14.898,16.2405435 L20.801,22.2759565 L21.93,21.1183261 L16.027,15.087 C15.859,14.9122826 15.766,14.6844348 15.766,14.4371739 C15.766,13.9344783 16.168,13.5227174 16.664,13.5227174 C16.902,13.5227174 17.129,13.6187609 17.297,13.790413 L23.199,19.8207174 L24.332,18.6671739 L18.43,12.6327826 C18.258,12.4611304 18.164,12.2302174 18.164,11.9860217 C18.164,11.4792391 18.566,11.0685 19.062,11.0685 C19.301,11.0685 19.527,11.1645435 19.695,11.3392609 L20,11.6468043 L33.367,25.3043913 Z M11.766,4.8696087 L14.633,7.79995652 L6.965,15.6346522 L4.098,12.7043043 L11.766,4.8696087 Z M7.766,17.1304783 L16.098,8.61734783 L17.035,8.61734783 L18.051,9.65543478 C17.203,10.0426739 16.609,10.8968478 16.574,11.8940652 C15.27,11.942087 14.223,13.0159348 14.176,14.3493043 C12.867,14.3973261 11.82,15.467087 11.773,16.7994348 C10.438,16.8474565 9.367,17.9652391 9.367,19.3425435 C9.367,20.0240435 9.625,20.6667174 10.098,21.145913 L10.633,21.6966304 L9.367,22.9942391 L7.766,21.357413 L7.766,17.1304783 Z M14.164,39.3420652 L6.496,31.5032826 L9.367,28.5739565 L17.035,36.4086522 L14.164,39.3420652 Z M18.496,35.5902391 L10.164,27.0811957 L10.164,24.487 L11.766,22.8501739 L16.566,27.7555435 L16.566,30.6889565 C16.566,30.9045435 16.648,31.1119565 16.801,31.2631739 L21.035,35.5902391 L18.496,35.5902391 Z M29.367,38.5236522 L26.496,35.5902391 L34.164,27.7555435 L37.035,30.6889565 L29.367,38.5236522 Z" id="Fill-1" fill="#000000" mask="url(#mask-2)"></path>
                    </g>
                    <polygon id="Fill-4" fill="#ED503E" points="32 31.7549451 33.756044 30 35 31.2395604 33.2450549 33"></polygon>
                    <polygon id="Fill-5" fill="#ED503E" points="12 36.2395604 13.2450549 35 15 36.7549451 13.756044 38"></polygon>
                    <polygon id="Fill-6" fill="#ED503E" points="9 9.75722121 10.7549451 8 12 9.24277879 10.2395604 11"></polygon>
                    <polygon id="Fill-7" fill="#ED503E" points="29 12.2402051 30.2406593 11 32 12.755401 30.7549451 14"></polygon>
                </g>
            </g>
        </g>
    </g>
</svg>