<?xml version="1.0" encoding="UTF-8"?>
<svg width="12px" height="10px" viewBox="0 0 12 10" version="1.1" xmlns="http://www.w3.org/2000/svg" xmlns:xlink="http://www.w3.org/1999/xlink">
    <!-- Generator: Sketch 59 (86127) - https://sketch.com -->
    <title></title>
    <desc>Created with Sketch.</desc>
    <g id="Page-1" stroke="none" stroke-width="1" fill="none" fill-rule="evenodd">
        <g id="About-Us-Mobile" transform="translate(-168.000000, -4438.000000)" fill="#000000">
            <g id="Join-the-Team" transform="translate(-261.000000, 3995.000000)">
                <path d="M430.845699,452.1699 C430.70898,452.306619 430.542965,452.374978 430.347653,452.374978 C430.152341,452.374978 429.986326,452.306619 429.849607,452.1699 L429.205078,451.496073 C429.068359,451.359355 429,451.19334 429,450.998028 C429,450.802716 429.068359,450.636701 429.205078,450.499982 L432.017571,447.687489 L429.205078,444.874996 C429.068359,444.738277 429,444.572262 429,444.37695 C429,444.181638 429.068359,444.015623 429.205078,443.878904 L429.849607,443.205078 C429.986326,443.068359 430.152341,443 430.347653,443 C430.542965,443 430.70898,443.068359 430.845699,443.205078 L434.830064,447.189443 C434.966783,447.326162 435.035142,447.492177 435.035142,447.687489 C435.035142,447.882801 434.966783,448.048816 434.830064,448.185535 L430.845699,452.1699 Z M440.455051,447.189443 C440.591769,447.326162 440.660128,447.492177 440.660128,447.687489 C440.660128,447.882801 440.591769,448.048816 440.455051,448.185535 L436.470685,452.1699 C436.333967,452.306619 436.167952,452.374978 435.97264,452.374978 C435.777327,452.374978 435.611313,452.306619 435.474594,452.1699 L434.830064,451.496073 C434.693346,451.359355 434.624987,451.19334 434.624987,450.998028 C434.624987,450.802716 434.693346,450.636701 434.830064,450.499982 L437.642558,447.687489 L434.830064,444.845699 C434.693346,444.728512 434.624987,444.572262 434.624987,444.37695 C434.624987,444.181638 434.693346,444.015623 434.830064,443.878904 L435.474594,443.205078 C435.611313,443.068359 435.777327,443 435.97264,443 C436.167952,443 436.333967,443.068359 436.470685,443.205078 L440.455051,447.189443 Z" id=""></path>
            </g>
        </g>
    </g>
</svg>