<?xml version="1.0" encoding="UTF-8"?>
<svg width="22px" height="22px" viewBox="0 0 22 22" version="1.1" xmlns="http://www.w3.org/2000/svg" xmlns:xlink="http://www.w3.org/1999/xlink">
    <!-- Generator: Sketch 59 (86127) - https://sketch.com -->
    <title></title>
    <desc>Created with Sketch.</desc>
    <g id="Page-1" stroke="none" stroke-width="1" fill="none" fill-rule="evenodd">
        <g id="About-Us-Mobile" transform="translate(-21.000000, -1117.000000)" fill="#FFFFFF">
            <g id="Group-10" transform="translate(-269.000000, 914.000000)">
                <g id="Group-3">
                    <path d="M300.999974,203.093795 C302.91924,203.093795 304.695277,203.573612 306.328086,204.533245 C307.960895,205.492878 309.257116,206.789099 310.216749,208.421907 C311.176382,210.054716 311.656198,211.830753 311.656198,213.75002 C311.656198,215.669286 311.176382,217.445323 310.216749,219.078132 C309.257116,220.710941 307.960895,222.007162 306.328086,222.966795 C304.695277,223.926427 302.91924,224.406244 300.999974,224.406244 C299.080707,224.406244 297.30467,223.926427 295.671861,222.966795 C294.039053,222.007162 292.742832,220.710941 291.783199,219.078132 C290.823566,217.445323 290.343749,215.669286 290.343749,213.75002 C290.343749,211.830753 290.823566,210.054716 291.783199,208.421907 C292.742832,206.789099 294.039053,205.492878 295.671861,204.533245 C297.30467,203.573612 299.080707,203.093795 300.999974,203.093795 Z M305.8984,213.019553 L300.054664,207.175817 C299.854143,206.975296 299.610654,206.875036 299.324197,206.875036 C299.037739,206.875036 298.808573,206.975296 298.636698,207.175817 L297.906231,207.906284 C297.677065,208.13545 297.562482,208.3861 297.562482,208.658235 C297.562482,208.930369 297.677065,209.166697 297.906231,209.367218 L302.246065,213.75002 L297.906231,218.132822 C297.677065,218.333342 297.562482,218.576831 297.562482,218.863289 C297.562482,219.149747 297.677065,219.393235 297.906231,219.593756 L298.636698,220.281254 C298.837219,220.51042 299.073546,220.625003 299.345681,220.625003 C299.617815,220.625003 299.854143,220.524743 300.054664,220.324223 L305.8984,214.480487 C306.09892,214.279966 306.19918,214.036478 306.19918,213.75002 C306.19918,213.463562 306.09892,213.220073 305.8984,213.019553 Z" id="" transform="translate(300.999974, 213.750020) scale(-1, 1) translate(-300.999974, -213.750020) "></path>
                </g>
            </g>
        </g>
    </g>
</svg>