<?xml version="1.0" encoding="UTF-8"?>
<svg width="22px" height="22px" viewBox="0 0 22 22" version="1.1" xmlns="http://www.w3.org/2000/svg" xmlns:xlink="http://www.w3.org/1999/xlink">
    <!-- Generator: Sketch 59 (86127) - https://sketch.com -->
    <title></title>
    <desc>Created with Sketch.</desc>
    <g id="Page-1" stroke="none" stroke-width="1" fill="none" fill-rule="evenodd">
        <g id="About-Us-Mobile" transform="translate(-278.000000, -1117.000000)" fill="#FFFFFF">
            <g id="Group-10" transform="translate(-269.000000, 914.000000)">
                <g id="Group-3">
                    <path d="M557.999974,203.093795 C559.91924,203.093795 561.695277,203.573612 563.328086,204.533245 C564.960895,205.492878 566.257116,206.789099 567.216749,208.421907 C568.176382,210.054716 568.656198,211.830753 568.656198,213.75002 C568.656198,215.669286 568.176382,217.445323 567.216749,219.078132 C566.257116,220.710941 564.960895,222.007162 563.328086,222.966795 C561.695277,223.926427 559.91924,224.406244 557.999974,224.406244 C556.080707,224.406244 554.30467,223.926427 552.671861,222.966795 C551.039053,222.007162 549.742832,220.710941 548.783199,219.078132 C547.823566,217.445323 547.343749,215.669286 547.343749,213.75002 C547.343749,211.830753 547.823566,210.054716 548.783199,208.421907 C549.742832,206.789099 551.039053,205.492878 552.671861,204.533245 C554.30467,203.573612 556.080707,203.093795 557.999974,203.093795 Z M562.8984,213.019553 L557.054664,207.175817 C556.854143,206.975296 556.610654,206.875036 556.324197,206.875036 C556.037739,206.875036 555.808573,206.975296 555.636698,207.175817 L554.906231,207.906284 C554.677065,208.13545 554.562482,208.3861 554.562482,208.658235 C554.562482,208.930369 554.677065,209.166697 554.906231,209.367218 L559.246065,213.75002 L554.906231,218.132822 C554.677065,218.333342 554.562482,218.576831 554.562482,218.863289 C554.562482,219.149747 554.677065,219.393235 554.906231,219.593756 L555.636698,220.281254 C555.837219,220.51042 556.073546,220.625003 556.345681,220.625003 C556.617815,220.625003 556.854143,220.524743 557.054664,220.324223 L562.8984,214.480487 C563.09892,214.279966 563.19918,214.036478 563.19918,213.75002 C563.19918,213.463562 563.09892,213.220073 562.8984,213.019553 Z" id=""></path>
                </g>
            </g>
        </g>
    </g>
</svg>