<?xml version="1.0" encoding="UTF-8"?>
<svg width="47px" height="48px" viewBox="0 0 47 48" version="1.1" xmlns="http://www.w3.org/2000/svg" xmlns:xlink="http://www.w3.org/1999/xlink">
    <!-- Generator: Sketch 59 (86127) - https://sketch.com -->
    <title>ball copy</title>
    <desc>Created with Sketch.</desc>
    <g id="Page-1" stroke="none" stroke-width="1" fill="none" fill-rule="evenodd">
        <g id="About-Us-Mobile" transform="translate(-132.000000, -2893.000000)">
            <g id="Our-Values" transform="translate(28.000000, 2303.000000)">
                <g id="ball-copy" transform="translate(127.000000, 614.500000) scale(-1, 1) translate(-127.000000, -614.500000) translate(104.000000, 591.000000)">
                    <path d="M34.2648761,22.5331144 C34.7527456,20.9046697 35,19.2116641 35,17.5 C35,12.3721047 32.760631,7.51882207 28.8571027,4.18443671 C25.6948796,1.48593005 21.6615428,0 17.5,0 C13.3021703,0 9.24296339,1.50916738 6.0695223,4.24934098 C2.21201081,7.57868968 0,12.4079337 0,17.5 C0,19.2134956 0.248170121,20.909134 0.737298779,22.540326 C1.79705846,26.0691952 4.0078101,29.2412627 6.96249975,31.4725044 C10.0179227,33.7802118 13.6617194,35 17.5,35 C21.3396542,35 24.9843667,33.779296 28.040133,31.470215 C30.9957385,29.2371418 33.2064901,26.0633573 34.2648761,22.5331144 Z M32.6819903,17.5 C32.6819903,18.6080659 32.5625985,19.7067452 32.3269056,20.7789821 L26.3950902,19.1898004 L23.7282917,11.080773 L28.1398361,6.66922861 C31.0386646,9.51849175 32.6819903,13.4081692 32.6819903,17.5 Z M17.5,2.31800967 C20.689009,2.31800967 23.7904487,3.32328181 26.3606349,5.17036349 L21.794442,9.73621295 L13.0741469,9.73621295 L8.5637007,5.22633913 C11.148768,3.34297058 14.2769936,2.31800967 17.5,2.31800967 Z M2.31800967,17.5 C2.31800967,13.4417088 3.93718235,9.57618443 6.79480177,6.73493416 L11.2395424,11.1795603 L8.61120559,19.1956384 L2.67435357,20.7860792 C2.43785935,19.7107516 2.31800967,18.6098974 2.31800967,17.5 Z M16.3409952,32.6368893 C10.5593639,32.1865658 5.45298897,28.4005979 3.34732043,23.0053016 L9.20358584,21.4362666 L16.3409952,26.5463046 L16.3409952,32.6368893 Z M17.4981685,24.5243133 L10.8616782,19.7729086 L13.392029,12.0542226 L21.6084289,12.0542226 L24.1383218,19.7473819 L17.4981685,24.5243133 Z M18.6590048,26.544931 L25.7771833,21.4237894 L31.6553124,22.9985479 C29.5510175,28.3978506 24.4437267,32.1865658 18.6590048,32.6368893 L18.6590048,26.544931 Z" id="Fill-1" stroke="#FFFFFF" stroke-width="0.5" fill="#000000"></path>
                    <g id="Group-5" transform="translate(31.000000, 28.000000)" fill="#ED503E">
                        <path d="M2.17326446,5.23342763 C1.68272727,4.79131579 0.888595041,4.79131579 0.398057851,5.23342763 C-0.0919834711,5.67553947 -0.0919834711,6.39289474 0.398057851,6.83500658 L11.2253306,16.6032961 C11.4707851,16.8244079 11.7918595,16.9353553 12.1129339,16.9353553 C12.4340083,16.9353553 12.7555785,16.8244079 13.0005372,16.6032961 C13.4905785,16.1611842 13.4905785,15.4442763 13.0005372,15.0021645 L2.17326446,5.23342763 Z" id="Fill-2"></path>
                        <path d="M14.5602893,6.80100658 L7.49801653,0.429473684 C7.00797521,-0.0121907895 6.21334711,-0.0121907895 5.72330579,0.429473684 C5.2327686,0.872032895 5.2327686,1.58894079 5.72330579,2.03105263 L12.7850826,8.40258553 C13.0300413,8.62325 13.3511157,8.73419737 13.672686,8.73419737 C13.9937603,8.73419737 14.3148347,8.62358553 14.5602893,8.40258553 C15.0503306,7.96002632 15.0503306,7.24311842 14.5602893,6.80100658 Z" id="Fill-4"></path>
                    </g>
                    <path d="M29.0146831,38.3455655 C28.5534615,37.8848115 27.8067882,37.8848115 27.3455666,38.3455655 C26.8848111,38.8063194 26.8848111,39.5534564 27.3455666,40.0142104 L33.9853169,46.6544054 C34.2161025,46.8848407 34.5179888,47 34.8198752,47 C35.1217615,47 35.4239974,46.8848407 35.6544334,46.6544054 C36.1151889,46.1936515 36.1151889,45.4465144 35.6544334,44.9852943 L29.0146831,38.3455655 Z" id="Fill-6" fill="#ED503E"></path>
                </g>
            </g>
        </g>
    </g>
</svg>