<?xml version="1.0" encoding="UTF-8"?>
<svg width="42px" height="52px" viewBox="0 0 42 52" version="1.1" xmlns="http://www.w3.org/2000/svg" xmlns:xlink="http://www.w3.org/1999/xlink">
    <!-- Generator: Sketch 59 (86127) - https://sketch.com -->
    <title>strategic-movement-sketch-of-sportive-instructions</title>
    <desc>Created with Sketch.</desc>
    <defs>
        <polygon id="path-1" points="0.18 0.14248 11.766 0.14248 11.766 12.37912 0.18 12.37912"></polygon>
    </defs>
    <g id="Page-1" stroke="none" stroke-width="1" fill="none" fill-rule="evenodd">
        <g id="About-Us-Mobile" transform="translate(-139.000000, -2685.000000)">
            <g id="Our-Values" transform="translate(28.000000, 2303.000000)">
                <g id="Group-4-Copy-2" transform="translate(3.000000, 382.000000)">
                    <g id="strategic-movement-sketch-of-sportive-instructions" transform="translate(129.000000, 26.000000) scale(-1, 1) translate(-129.000000, -26.000000) translate(108.000000, 0.000000)">
                        <g id="Group-3" transform="translate(0.000000, 32.000000)">
                            <mask id="mask-2" fill="white">
                                <use xlink:href="#path-1"></use>
                            </mask>
                            <g id="Clip-2"></g>
                            <polygon id="Fill-1" fill="#ED503E" mask="url(#mask-2)" points="10.077 0.14248 6 4.64152 1.677 0.14248 0 1.89904 4.323 6.38248 0 10.62568 1.677 12.37912 6 8.13904 10.077 12.37912 11.766 10.62568 7.677 6.38248 11.766 1.89904"></polygon>
                        </g>
                        <path d="M27.3284732,41.3185754 L27.3284732,33.2652933 L7.96584045,15.1814944 L15.6642366,15.1814944 L15.6642366,13 L4,13 L4,23.8938547 L6.33576338,23.8938547 L6.33576338,16.7011872 L24.9927099,34.1395251 L24.9927099,41.3185754 C22.4324099,41.7570531 20.3357634,43.935824 20.3357634,46.5530726 C20.3357634,49.6060754 22.8989794,52 26.1678817,52 C29.436784,52 32,49.6060754 32,46.5530726 C32,44.159148 29.8916892,41.9803771 27.3284732,41.3185754 Z M26.1678817,50.0445531 C24.2986878,50.0445531 22.6715268,48.511243 22.6715268,46.7655028 C22.6715268,45.0333799 24.0595709,43.5000698 26.1678817,43.5000698 C28.2645282,43.5000698 29.6642366,45.0333799 29.6642366,46.7655028 C29.6642366,48.511243 28.0341596,50.0445531 26.1678817,50.0445531 Z" id="Fill-4" fill="#000000"></path>
                        <polygon id="Fill-5" fill="#ED503E" points="42 17.7090352 40.2804691 16 36.1193269 20.4012251 31.7225905 16 30 17.7090352 34.4120347 22.1255743 30 26.287902 31.7225905 28 36.1193269 23.8346095 40.2804691 28 42 26.287902 37.8419174 22.1255743"></polygon>
                        <polygon id="Fill-6" fill="#ED503E" points="30.2804691 0 26.1193269 4.40897501 21.7225905 0 20 1.71035186 24.4120347 6.11932687 20 10.2774095 21.7225905 12 26.1193269 7.82967874 30.2804691 12 32 10.2774095 27.8419174 6.11932687 32 1.71035186"></polygon>
                    </g>
                </g>
            </g>
        </g>
    </g>
</svg>